<mxfile host="app.diagrams.net" modified="2024-06-29T04:16:33.925Z" agent="Mozilla/5.0 (Windows NT 10.0; Win64; x64) AppleWebKit/537.36 (KHTML, like Gecko) Chrome/126.0.0.0 Safari/537.36" version="24.6.4" etag="JY0AXHtSQmh3slnjHjD3" type="github">
  <diagram name="Page-1" id="Ffi0A6WkmWiChS5o_n1q">
    <mxGraphModel>
      <root>
        <mxCell id="0" />
        <mxCell id="1" parent="0" />
      </root>
    </mxGraphModel>
  </diagram>
</mxfile>
